<svg width="42" height="42" viewBox="0 0 42 42" fill="none" xmlns="http://www.w3.org/2000/svg">
<path d="M38.8662 20.7286C38.8662 30.7405 30.7497 38.8662 20.7287 38.8662C10.7077 38.8662 2.59109 30.7405 2.59109 20.7286C2.59109 10.7076 10.7077 2.59106 20.7287 2.59106C30.7497 2.59106 38.8662 10.7076 38.8662 20.7286Z" fill="#283544"/>
<path d="M29.2301 16.1391C29.1311 16.1968 26.775 17.4153 26.775 20.117C26.8861 23.1981 29.7483 24.2786 29.7974 24.2786C29.7483 24.3364 29.3653 25.7506 28.2307 27.233C27.3302 28.51 26.3308 29.7975 24.8132 29.7975C23.3696 29.7975 22.8514 28.9464 21.1857 28.9464C19.3969 28.9464 18.8907 29.7975 17.5211 29.7975C16.0035 29.7975 14.93 28.441 13.9805 27.176C12.7469 25.5204 11.6984 22.9222 11.6614 20.4275C11.6365 19.1055 11.9085 17.806 12.5989 16.7022C13.5733 15.1613 15.3131 14.1153 17.2129 14.0808C18.6686 14.0351 19.9642 15.0121 20.8525 15.0121C21.7039 15.0121 23.2956 14.0808 25.0964 14.0808C25.8738 14.0815 27.9466 14.2997 29.2301 16.1391ZM20.7294 13.8168C20.4703 12.6096 21.1857 11.4024 21.8519 10.6323C22.7033 9.70096 24.0479 9.06885 25.2075 9.06885C25.2815 10.2761 24.8124 11.4601 23.9739 12.3224C23.2215 13.2537 21.926 13.9548 20.7294 13.8168Z" fill="white"/>
</svg>
